<mxfile host="Electron" modified="2024-09-26T22:31:44.726Z" agent="Mozilla/5.0 (Macintosh; Intel Mac OS X 10_15_7) AppleWebKit/537.36 (KHTML, like Gecko) draw.io/23.0.2 Chrome/120.0.6099.109 Electron/28.1.0 Safari/537.36" etag="6ZagDQ2B4iVrdT8VDGWz" version="23.0.2" type="device">
  <diagram id="nPAHsuBVC_biOXkHt-TI" name="Page-1">
    <mxGraphModel dx="896" dy="633" grid="1" gridSize="10" guides="1" tooltips="1" connect="1" arrows="1" fold="1" page="1" pageScale="1" pageWidth="1400" pageHeight="700" math="0" shadow="0">
      <root>
        <mxCell id="0" />
        <mxCell id="1" parent="0" />
        <mxCell id="hKUZ7SRIVkPXy3vvsNZo-3" value="" style="rounded=1;whiteSpace=wrap;html=1;fillColor=none;strokeWidth=2;dashed=1;" vertex="1" parent="1">
          <mxGeometry x="440" y="160" width="320" height="340" as="geometry" />
        </mxCell>
        <mxCell id="hKUZ7SRIVkPXy3vvsNZo-181" style="edgeStyle=orthogonalEdgeStyle;rounded=0;orthogonalLoop=1;jettySize=auto;html=1;entryX=0;entryY=0.5;entryDx=0;entryDy=0;" edge="1" parent="1" source="hKUZ7SRIVkPXy3vvsNZo-2" target="hKUZ7SRIVkPXy3vvsNZo-176">
          <mxGeometry relative="1" as="geometry" />
        </mxCell>
        <mxCell id="hKUZ7SRIVkPXy3vvsNZo-2" value="" style="sketch=0;outlineConnect=0;fillColor=#f0a30a;strokeColor=#BD7000;dashed=0;verticalLabelPosition=bottom;verticalAlign=top;align=center;html=1;fontSize=14;fontStyle=0;aspect=fixed;pointerEvents=1;shape=mxgraph.aws4.waf_bot;fontColor=#000000;" vertex="1" parent="1">
          <mxGeometry x="536.42" y="198" width="50" height="50" as="geometry" />
        </mxCell>
        <mxCell id="hKUZ7SRIVkPXy3vvsNZo-8" value="" style="group" vertex="1" connectable="0" parent="1">
          <mxGeometry x="456.42999999999995" y="198" width="40" height="50" as="geometry" />
        </mxCell>
        <mxCell id="hKUZ7SRIVkPXy3vvsNZo-4" value="" style="shape=note;whiteSpace=wrap;html=1;backgroundOutline=1;darkOpacity=0.05;size=11;strokeWidth=2;fillColor=#fff2cc;strokeColor=#d6b656;fontSize=14;" vertex="1" parent="hKUZ7SRIVkPXy3vvsNZo-8">
          <mxGeometry width="40" height="50" as="geometry" />
        </mxCell>
        <mxCell id="hKUZ7SRIVkPXy3vvsNZo-5" value="" style="group;fontSize=14;" vertex="1" connectable="0" parent="hKUZ7SRIVkPXy3vvsNZo-8">
          <mxGeometry x="10" y="17" width="20" height="28" as="geometry" />
        </mxCell>
        <mxCell id="hKUZ7SRIVkPXy3vvsNZo-6" value="" style="line;strokeWidth=2;html=1;container=0;opacity=50;fontSize=14;" vertex="1" parent="hKUZ7SRIVkPXy3vvsNZo-5">
          <mxGeometry width="15" height="10" as="geometry" />
        </mxCell>
        <mxCell id="hKUZ7SRIVkPXy3vvsNZo-7" value="" style="line;strokeWidth=2;html=1;container=0;opacity=50;fontSize=14;" vertex="1" parent="hKUZ7SRIVkPXy3vvsNZo-5">
          <mxGeometry y="10" width="20" height="8" as="geometry" />
        </mxCell>
        <mxCell id="hKUZ7SRIVkPXy3vvsNZo-9" style="edgeStyle=orthogonalEdgeStyle;rounded=0;orthogonalLoop=1;jettySize=auto;html=1;" edge="1" parent="1" source="hKUZ7SRIVkPXy3vvsNZo-4" target="hKUZ7SRIVkPXy3vvsNZo-2">
          <mxGeometry relative="1" as="geometry" />
        </mxCell>
        <mxCell id="hKUZ7SRIVkPXy3vvsNZo-29" value="" style="group" vertex="1" connectable="0" parent="1">
          <mxGeometry x="456.99999999999994" y="264" width="40" height="50" as="geometry" />
        </mxCell>
        <mxCell id="hKUZ7SRIVkPXy3vvsNZo-30" value="" style="shape=note;whiteSpace=wrap;html=1;backgroundOutline=1;darkOpacity=0.05;size=11;strokeWidth=2;fillColor=#d5e8d4;strokeColor=#82b366;fontSize=14;" vertex="1" parent="hKUZ7SRIVkPXy3vvsNZo-29">
          <mxGeometry width="40" height="50" as="geometry" />
        </mxCell>
        <mxCell id="hKUZ7SRIVkPXy3vvsNZo-31" value="" style="group;fontSize=14;" vertex="1" connectable="0" parent="hKUZ7SRIVkPXy3vvsNZo-29">
          <mxGeometry x="10" y="17" width="20" height="28" as="geometry" />
        </mxCell>
        <mxCell id="hKUZ7SRIVkPXy3vvsNZo-32" value="" style="line;strokeWidth=2;html=1;container=0;opacity=50;fontSize=14;" vertex="1" parent="hKUZ7SRIVkPXy3vvsNZo-31">
          <mxGeometry width="15" height="10" as="geometry" />
        </mxCell>
        <mxCell id="hKUZ7SRIVkPXy3vvsNZo-33" value="" style="line;strokeWidth=2;html=1;container=0;opacity=50;fontSize=14;" vertex="1" parent="hKUZ7SRIVkPXy3vvsNZo-31">
          <mxGeometry y="10" width="20" height="8" as="geometry" />
        </mxCell>
        <mxCell id="hKUZ7SRIVkPXy3vvsNZo-182" style="edgeStyle=orthogonalEdgeStyle;rounded=0;orthogonalLoop=1;jettySize=auto;html=1;entryX=0;entryY=0.5;entryDx=0;entryDy=0;" edge="1" parent="1" source="hKUZ7SRIVkPXy3vvsNZo-34" target="hKUZ7SRIVkPXy3vvsNZo-177">
          <mxGeometry relative="1" as="geometry" />
        </mxCell>
        <mxCell id="hKUZ7SRIVkPXy3vvsNZo-34" value="" style="sketch=0;outlineConnect=0;fillColor=#d5e8d4;strokeColor=#82b366;dashed=0;verticalLabelPosition=bottom;verticalAlign=top;align=center;html=1;fontSize=14;fontStyle=0;aspect=fixed;pointerEvents=1;shape=mxgraph.aws4.waf_bot;gradientColor=#97d077;" vertex="1" parent="1">
          <mxGeometry x="536.42" y="269" width="50" height="50" as="geometry" />
        </mxCell>
        <mxCell id="hKUZ7SRIVkPXy3vvsNZo-35" style="edgeStyle=orthogonalEdgeStyle;rounded=0;orthogonalLoop=1;jettySize=auto;html=1;exitX=0;exitY=0;exitDx=40;exitDy=30.5;exitPerimeter=0;" edge="1" parent="1" source="hKUZ7SRIVkPXy3vvsNZo-30" target="hKUZ7SRIVkPXy3vvsNZo-34">
          <mxGeometry relative="1" as="geometry" />
        </mxCell>
        <mxCell id="hKUZ7SRIVkPXy3vvsNZo-36" value="" style="group" vertex="1" connectable="0" parent="1">
          <mxGeometry x="456.99999999999994" y="360" width="40" height="50" as="geometry" />
        </mxCell>
        <mxCell id="hKUZ7SRIVkPXy3vvsNZo-37" value="" style="shape=note;whiteSpace=wrap;html=1;backgroundOutline=1;darkOpacity=0.05;size=11;strokeWidth=2;fillColor=#f8cecc;strokeColor=#b85450;fontSize=14;" vertex="1" parent="hKUZ7SRIVkPXy3vvsNZo-36">
          <mxGeometry width="40" height="50" as="geometry" />
        </mxCell>
        <mxCell id="hKUZ7SRIVkPXy3vvsNZo-38" value="" style="group;fontSize=14;" vertex="1" connectable="0" parent="hKUZ7SRIVkPXy3vvsNZo-36">
          <mxGeometry x="10" y="17" width="20" height="28" as="geometry" />
        </mxCell>
        <mxCell id="hKUZ7SRIVkPXy3vvsNZo-39" value="" style="line;strokeWidth=2;html=1;container=0;opacity=50;fontSize=14;" vertex="1" parent="hKUZ7SRIVkPXy3vvsNZo-38">
          <mxGeometry width="15" height="10" as="geometry" />
        </mxCell>
        <mxCell id="hKUZ7SRIVkPXy3vvsNZo-40" value="" style="line;strokeWidth=2;html=1;container=0;opacity=50;fontSize=14;" vertex="1" parent="hKUZ7SRIVkPXy3vvsNZo-38">
          <mxGeometry y="10" width="20" height="8" as="geometry" />
        </mxCell>
        <mxCell id="hKUZ7SRIVkPXy3vvsNZo-183" style="edgeStyle=orthogonalEdgeStyle;rounded=0;orthogonalLoop=1;jettySize=auto;html=1;" edge="1" parent="1" source="hKUZ7SRIVkPXy3vvsNZo-41" target="hKUZ7SRIVkPXy3vvsNZo-178">
          <mxGeometry relative="1" as="geometry" />
        </mxCell>
        <mxCell id="hKUZ7SRIVkPXy3vvsNZo-41" value="" style="sketch=0;outlineConnect=0;fillColor=#f8cecc;strokeColor=#b85450;dashed=0;verticalLabelPosition=bottom;verticalAlign=top;align=center;html=1;fontSize=14;fontStyle=0;aspect=fixed;pointerEvents=1;shape=mxgraph.aws4.waf_bot;gradientColor=#ea6b66;" vertex="1" parent="1">
          <mxGeometry x="536.42" y="365" width="50" height="50" as="geometry" />
        </mxCell>
        <mxCell id="hKUZ7SRIVkPXy3vvsNZo-42" style="edgeStyle=orthogonalEdgeStyle;rounded=0;orthogonalLoop=1;jettySize=auto;html=1;exitX=0;exitY=0;exitDx=40;exitDy=30.5;exitPerimeter=0;" edge="1" parent="1" source="hKUZ7SRIVkPXy3vvsNZo-37" target="hKUZ7SRIVkPXy3vvsNZo-41">
          <mxGeometry relative="1" as="geometry" />
        </mxCell>
        <mxCell id="hKUZ7SRIVkPXy3vvsNZo-43" value="" style="group" vertex="1" connectable="0" parent="1">
          <mxGeometry x="456.99999999999994" y="430" width="40" height="50" as="geometry" />
        </mxCell>
        <mxCell id="hKUZ7SRIVkPXy3vvsNZo-44" value="" style="shape=note;whiteSpace=wrap;html=1;backgroundOutline=1;darkOpacity=0.05;size=11;strokeWidth=2;fillColor=#dae8fc;strokeColor=#6c8ebf;fontSize=14;" vertex="1" parent="hKUZ7SRIVkPXy3vvsNZo-43">
          <mxGeometry width="40" height="50" as="geometry" />
        </mxCell>
        <mxCell id="hKUZ7SRIVkPXy3vvsNZo-45" value="" style="group;fontSize=14;" vertex="1" connectable="0" parent="hKUZ7SRIVkPXy3vvsNZo-43">
          <mxGeometry x="10" y="17" width="20" height="28" as="geometry" />
        </mxCell>
        <mxCell id="hKUZ7SRIVkPXy3vvsNZo-46" value="" style="line;strokeWidth=2;html=1;container=0;opacity=50;fontSize=14;" vertex="1" parent="hKUZ7SRIVkPXy3vvsNZo-45">
          <mxGeometry width="15" height="10" as="geometry" />
        </mxCell>
        <mxCell id="hKUZ7SRIVkPXy3vvsNZo-47" value="" style="line;strokeWidth=2;html=1;container=0;opacity=50;fontSize=14;" vertex="1" parent="hKUZ7SRIVkPXy3vvsNZo-45">
          <mxGeometry y="10" width="20" height="8" as="geometry" />
        </mxCell>
        <mxCell id="hKUZ7SRIVkPXy3vvsNZo-184" style="edgeStyle=orthogonalEdgeStyle;rounded=0;orthogonalLoop=1;jettySize=auto;html=1;" edge="1" parent="1" source="hKUZ7SRIVkPXy3vvsNZo-48" target="hKUZ7SRIVkPXy3vvsNZo-179">
          <mxGeometry relative="1" as="geometry" />
        </mxCell>
        <mxCell id="hKUZ7SRIVkPXy3vvsNZo-48" value="" style="sketch=0;outlineConnect=0;fillColor=#dae8fc;strokeColor=#6c8ebf;dashed=0;verticalLabelPosition=bottom;verticalAlign=top;align=center;html=1;fontSize=14;fontStyle=0;aspect=fixed;pointerEvents=1;shape=mxgraph.aws4.waf_bot;gradientColor=#7ea6e0;" vertex="1" parent="1">
          <mxGeometry x="536.42" y="435" width="50" height="50" as="geometry" />
        </mxCell>
        <mxCell id="hKUZ7SRIVkPXy3vvsNZo-49" style="edgeStyle=orthogonalEdgeStyle;rounded=0;orthogonalLoop=1;jettySize=auto;html=1;exitX=0;exitY=0;exitDx=40;exitDy=30.5;exitPerimeter=0;" edge="1" parent="1" source="hKUZ7SRIVkPXy3vvsNZo-44" target="hKUZ7SRIVkPXy3vvsNZo-48">
          <mxGeometry relative="1" as="geometry" />
        </mxCell>
        <mxCell id="hKUZ7SRIVkPXy3vvsNZo-52" value="" style="endArrow=none;dashed=1;html=1;dashPattern=1 3;strokeWidth=2;rounded=0;fontSize=14;" edge="1" parent="1">
          <mxGeometry width="50" height="50" relative="1" as="geometry">
            <mxPoint x="519.9999999999999" y="273" as="sourcePoint" />
            <mxPoint x="519.9999999999999" y="253" as="targetPoint" />
          </mxGeometry>
        </mxCell>
        <mxCell id="hKUZ7SRIVkPXy3vvsNZo-53" value="" style="endArrow=none;dashed=1;html=1;dashPattern=1 3;strokeWidth=2;rounded=0;fontSize=14;" edge="1" parent="1">
          <mxGeometry width="50" height="50" relative="1" as="geometry">
            <mxPoint x="519.9999999999999" y="435" as="sourcePoint" />
            <mxPoint x="519.9999999999999" y="415" as="targetPoint" />
          </mxGeometry>
        </mxCell>
        <mxCell id="hKUZ7SRIVkPXy3vvsNZo-128" value="Market prediction" style="text;html=1;strokeColor=none;fillColor=default;align=center;verticalAlign=middle;whiteSpace=wrap;rounded=0;fontSize=15;fontStyle=1" vertex="1" parent="1">
          <mxGeometry x="534.4100000000001" y="148" width="131.18" height="20" as="geometry" />
        </mxCell>
        <mxCell id="hKUZ7SRIVkPXy3vvsNZo-129" value="Cross-section prediction" style="text;html=1;strokeColor=none;fillColor=default;align=center;verticalAlign=middle;whiteSpace=wrap;rounded=0;fontSize=14;fontStyle=1" vertex="1" parent="1">
          <mxGeometry x="513.74" y="488" width="172.51" height="20" as="geometry" />
        </mxCell>
        <mxCell id="hKUZ7SRIVkPXy3vvsNZo-134" value="Next Week&#39;s Market Return will be:&amp;nbsp;&lt;u&gt;&amp;nbsp; &amp;nbsp; &amp;nbsp; &amp;nbsp; &amp;nbsp;&lt;/u&gt;" style="text;html=1;strokeColor=default;fillColor=none;align=center;verticalAlign=middle;whiteSpace=wrap;rounded=1;fontSize=14;strokeWidth=1;" vertex="1" parent="1">
          <mxGeometry x="590" y="173" width="139" height="38" as="geometry" />
        </mxCell>
        <mxCell id="hKUZ7SRIVkPXy3vvsNZo-140" value="" style="endArrow=none;dashed=1;html=1;strokeWidth=2;rounded=0;dashPattern=12 12;entryX=1;entryY=0.5;entryDx=0;entryDy=0;exitX=0;exitY=0.5;exitDx=0;exitDy=0;" edge="1" parent="1" source="hKUZ7SRIVkPXy3vvsNZo-3" target="hKUZ7SRIVkPXy3vvsNZo-3">
          <mxGeometry width="50" height="50" relative="1" as="geometry">
            <mxPoint x="550" y="330" as="sourcePoint" />
            <mxPoint x="870" y="330" as="targetPoint" />
          </mxGeometry>
        </mxCell>
        <mxCell id="hKUZ7SRIVkPXy3vvsNZo-176" value="Very High" style="text;html=1;strokeColor=none;fillColor=none;align=center;verticalAlign=middle;whiteSpace=wrap;rounded=0;fontSize=14;fontStyle=4" vertex="1" parent="1">
          <mxGeometry x="640" y="213" width="70" height="20" as="geometry" />
        </mxCell>
        <mxCell id="hKUZ7SRIVkPXy3vvsNZo-177" value="Medium" style="text;html=1;strokeColor=none;fillColor=none;align=center;verticalAlign=middle;whiteSpace=wrap;rounded=0;fontSize=14;fontStyle=4" vertex="1" parent="1">
          <mxGeometry x="640" y="284" width="70" height="20" as="geometry" />
        </mxCell>
        <mxCell id="hKUZ7SRIVkPXy3vvsNZo-178" value="Very Low" style="text;html=1;strokeColor=none;fillColor=none;align=center;verticalAlign=middle;whiteSpace=wrap;rounded=0;fontSize=14;fontStyle=4" vertex="1" parent="1">
          <mxGeometry x="640" y="380" width="70" height="20" as="geometry" />
        </mxCell>
        <mxCell id="hKUZ7SRIVkPXy3vvsNZo-179" value="Medium" style="text;html=1;strokeColor=none;fillColor=none;align=center;verticalAlign=middle;whiteSpace=wrap;rounded=0;fontSize=14;fontStyle=4" vertex="1" parent="1">
          <mxGeometry x="640" y="450" width="70" height="20" as="geometry" />
        </mxCell>
        <mxCell id="hKUZ7SRIVkPXy3vvsNZo-186" value="Next Week&#39;s Bitcoin Return will be:&amp;nbsp;&lt;u&gt;&amp;nbsp; &amp;nbsp; &amp;nbsp; &amp;nbsp; &amp;nbsp;&lt;/u&gt;" style="text;html=1;strokeColor=default;fillColor=none;align=center;verticalAlign=middle;whiteSpace=wrap;rounded=1;fontSize=14;strokeWidth=1;" vertex="1" parent="1">
          <mxGeometry x="590" y="342" width="139" height="38" as="geometry" />
        </mxCell>
      </root>
    </mxGraphModel>
  </diagram>
</mxfile>
